<svg width="32" height="34" viewBox="0 0 32 34" fill="none" xmlns="http://www.w3.org/2000/svg">
<g clip-path="url(#clip0_1_55)">
<path d="M20.1962 19.7778H19.169L18.805 19.4028C20.0792 17.8194 20.8463 15.7639 20.8463 13.5278C20.8463 8.54166 17.0627 4.49999 12.3948 4.49999C7.72696 4.49999 3.94327 8.54166 3.94327 13.5278C3.94327 18.5139 7.72696 22.5556 12.3948 22.5556C14.4882 22.5556 16.4125 21.7361 17.8948 20.375L18.2459 20.7639V21.8611L24.7471 28.7917L26.6844 26.7222L20.1962 19.7778ZM12.3948 19.7778C9.15722 19.7778 6.54374 16.9861 6.54374 13.5278C6.54374 10.0694 9.15722 7.27777 12.3948 7.27777C15.6324 7.27777 18.2459 10.0694 18.2459 13.5278C18.2459 16.9861 15.6324 19.7778 12.3948 19.7778Z" fill="#61656F"/>
</g>
<defs>
<clipPath id="clip0_1_55">
<rect width="31.2057" height="33.3333" fill="white" transform="translate(0.0425568 0.333328)"/>
</clipPath>
</defs>
</svg>
