<?xml version="1.0" encoding="iso-8859-1"?>
<!-- Uploaded to: SVG Repo, www.svgrepo.com, Generator: SVG Repo Mixer Tools -->
<svg height="800px" width="800px" version="1.1" id="Layer_1" xmlns="http://www.w3.org/2000/svg" xmlns:xlink="http://www.w3.org/1999/xlink" 
	 viewBox="0 0 512 512" xml:space="preserve">
<path style="fill:#2C6991;" d="M299.932,16.271C299.932,7.285,292.647,0,283.661,0h-53.153c-8.986,0-16.271,7.285-16.271,16.271
	v73.763c0,8.986,7.285,16.271,16.271,16.271h53.153c8.986,0,16.271-7.285,16.271-16.271V16.271z"/>
<path style="fill:#528FB3;" d="M256.542,0h-26.034c-8.986,0-16.271,7.285-16.271,16.271v73.763c0,8.986,7.285,16.271,16.271,16.271
	h26.034V0z"/>
<path style="fill:#16A5D9;" d="M361.558,259.682l-55.117-90.474V90.034c0-8.986-7.285-16.271-16.271-16.271h-67.254
	c-8.986,0-16.271,7.285-16.271,16.271v79.101l-56.129,90.431c-1.6,2.576-2.447,5.547-2.447,8.58v227.583
	c0,8.986,7.285,16.271,16.271,16.271h183.322c8.986,0,16.271-7.285,16.271-16.271V268.146
	C363.932,265.16,363.11,262.231,361.558,259.682z"/>
<path style="fill:#4AD0FF;" d="M256.542,73.763h-33.627c-8.986,0-16.271,7.285-16.271,16.271v79.101l-56.129,90.431
	c-1.6,2.576-2.447,5.547-2.447,8.58v227.583c0,8.986,7.285,16.271,16.271,16.271h92.203V73.763z"/>
</svg>